<svg id="Layer_1" xmlns="http://www.w3.org/2000/svg" viewBox="0 0 44.36 38.41"><polygon points="11.96 36.91 1.73 19.2 11.96 1.5 32.4 1.5 42.63 19.2 32.4 36.91 11.96 36.91" fill="#1a1a1a"/><path d="M83.07,19.64l4.68,8.11h0l4.68,8.11L87.75,44h0l-4.68,8.1H64.36L59.68,44h0L55,35.85l4.68-8.11h0l4.68-8.11H83.07m1.73-3H62.62l-.86,1.5-3,5.17h0l-1.69,2.93L52.4,34.35l-.87,1.5.87,1.5,4.68,8.1,1.68,2.91h0l3,5.19.86,1.5H84.8l.87-1.5,3.12-5.42,1.56-2.68L95,37.35l.87-1.5L95,34.35l-4.67-8.11-1.71-2.95h0l-3-5.16-.87-1.5Z" transform="translate(-51.53 -16.64)" fill="#fc0"/><path d="M84.5,45.87V25H62.93V45.87h0v.81H84.5v-.82ZM83.29,26.2c0,.19,0,.38-.06.56a8.49,8.49,0,0,1-.14.88c-.06.29-.14.57-.23.86s-.19.56-.3.83A10.19,10.19,0,0,1,81.68,31a9.37,9.37,0,0,1-1.17,1.43h0a10,10,0,0,1-1.46,1.19l-.54.34L74.63,26.2Zm-9,2.07,3.1,6.18q-.4.16-.81.3a8.33,8.33,0,0,1-.86.22,6.08,6.08,0,0,1-.87.15l-.56.05Zm-1.5-2.07-3.88,7.73a5.65,5.65,0,0,1-.58-.36A9.72,9.72,0,0,1,65.75,31a9.41,9.41,0,0,1-.87-1.63h0c-.12-.28-.22-.56-.31-.83s-.17-.57-.23-.86a8.49,8.49,0,0,1-.14-.88c0-.18,0-.37-.06-.56Zm-8.69,4.34v0A11,11,0,0,0,65,32a10.32,10.32,0,0,0,1,1.23,9.47,9.47,0,0,0,1.21,1.06A9.82,9.82,0,0,0,68.4,35l-4.27,8.48Zm9,14.94H64.46l5-9.94.64.25a10.22,10.22,0,0,0,1.62.44,10.44,10.44,0,0,0,1.37.15Zm0-10.31-.56-.05a6.33,6.33,0,0,1-.87-.15,8.33,8.33,0,0,1-.86-.22c-.27-.09-.53-.18-.8-.29l3.09-6.14Zm1.21,10.31v-9.1a10.44,10.44,0,0,0,1.37-.15,10.22,10.22,0,0,0,1.62-.44l.66-.26,5,9.95Zm9-2L79.05,35a9.11,9.11,0,0,0,1.12-.75,9.47,9.47,0,0,0,1.21-1.06A10.32,10.32,0,0,0,82.43,32a11,11,0,0,0,.86-1.38v12.9Z" transform="translate(-51.53 -16.64)" fill="#fc0" stroke="#fc0" stroke-linecap="round" stroke-miterlimit="10" stroke-width="1"/></svg>
